<?xml version="1.0" encoding="utf-8"?>
<!-- Generator: Adobe Illustrator 26.4.1, SVG Export Plug-In . SVG Version: 6.00 Build 0)  -->
<svg version="1.1" id="Calque_1" xmlns="http://www.w3.org/2000/svg" xmlns:xlink="http://www.w3.org/1999/xlink" x="0px" y="0px"
	 viewBox="0 0 64 64" style="enable-background:new 0 0 64 64;" xml:space="preserve">
<style type="text/css">
	.st0{fill:#C2A68B;}
</style>
<g>
	<g>
		<path class="st0" d="M50.2,58.3c-6.1,4.2-13.5,6.2-20.8,5.6c-1.7-0.1-2.9-1.6-2.7-3.2c0.1-1.7,1.6-2.9,3.2-2.7
			c6,0.5,12-1.1,16.9-4.5c11.8-8.1,14.8-24.4,6.6-36.2C45.3,5.4,29,2.5,17.2,10.6S2.5,35,10.6,46.8c2.1,3.1,4.8,5.6,7.9,7.5
			c1.4,0.9,1.9,2.7,1,4.1c-0.9,1.4-2.7,1.9-4.1,1c-3.9-2.3-7.1-5.4-9.7-9.2c-10-14.5-6.4-34.5,8.2-44.5s34.5-6.4,44.5,8.2
			C68.4,28.3,64.7,48.3,50.2,58.3z"/>
	</g>
	<script>
		!function(){function t(t){this.element=t,this.circle=this.element.getElementsByTagName(&quot;path&quot;)[0],this.animationId,this.start=null,this.init()}if(!window.requestAnimationFrame){var i=null;window.requestAnimationFrame=function(t,n){var e=(new Date).getTime();i||(i=e);var a=Math.max(0,16-(e-i)),o=window.setTimeout(function(){t(e+a)},a);return i=e+a,o}}t.prototype.init=function(){var t=this;this.animationId=window.requestAnimationFrame(t.triggerAnimation.bind(t))},t.prototype.reset=function(){var t=this;window.cancelAnimationFrame(t.animationId)},t.prototype.triggerAnimation=function(t){var i=this;this.start||(this.start=t);var n=t-this.start;720&gt;n||(this.start=this.start+720),this.circle.setAttribute(&quot;transform&quot;,&quot;rotate(&quot;+Math.min(n/2,360)+&quot; 32 32)&quot;);if(document.documentElement.contains(this.element))window.requestAnimationFrame(i.triggerAnimation.bind(i))};var n=document.getElementsByClassName(&quot;nc-loop_circle-04-64&quot;),e=[];if(n)for(var a=0;n.length&gt;a;a++)!function(i){e.push(new t(n[i]))}(a);document.addEventListener(&quot;visibilitychange&quot;,function(){&quot;hidden&quot;==document.visibilityState?e.forEach(function(t){t.reset()}):e.forEach(function(t){t.init()})})}();
		</script>
</g>
</svg>
