<svg xmlns="http://www.w3.org/2000/svg" width="94.786" height="71.682" viewBox="0 0 94.786 71.682">
  <path id="Path_1923" data-name="Path 1923" d="M-313.686-98.788a14.809,14.809,0,0,1-6.585,4.076,14.824,14.824,0,0,1-18.875-11.479A14.407,14.407,0,0,1-335.694-119a13.152,13.152,0,0,1,7.632-4.206c.209-.04.415-.091.647-.142a35.628,35.628,0,0,1,6.448-24.535,33.338,33.338,0,0,1,14.243-11.772c14.778-6.276,28.1-3.59,40.094,6.808v-5.172h2.058v18.185H-266.6v-.551c0-2.969.008-5.937-.014-8.905a1.286,1.286,0,0,0-.314-.794,33.566,33.566,0,0,0-17.337-10.058,34.025,34.025,0,0,0-9.517-.786,34.912,34.912,0,0,0-6.731,1.071c-.4.1-.521.273-.521.7q.021,21.588,0,43.175c0,.483.231.639.571.836,6.38,3.705,12.74,7.443,19.137,11.118,2.722,1.563,5.521,2.992,8.276,4.5a.773.773,0,0,0,.965-.06,33.649,33.649,0,0,0,13.363-20.316c.242-1.081.366-2.188.548-3.283a2.1,2.1,0,0,1,.086-.277,13.714,13.714,0,0,1,8.216,3.106,14,14,0,0,1,5.127,9.78,15.182,15.182,0,0,1-8.533,15.14,16.54,16.54,0,0,1-8.273,1.46,29.739,29.739,0,0,1-10.315-2.8.916.916,0,0,0-.985.059,35.091,35.091,0,0,1-13.089,4.941,36.223,36.223,0,0,1-8.318.376,34.378,34.378,0,0,1-13.581-3.723c-1.843-.95-3.549-2.166-5.315-3.265C-313.338-98.515-313.5-98.653-313.686-98.788Zm4.865-57.566c-.229.127-.4.212-.564.313a33.686,33.686,0,0,0-12.693,13.833,33.739,33.739,0,0,0-3.438,17.992c.029.379.174.461.529.475,1.38.056,2.77.062,4.134.249a36.659,36.659,0,0,1,9.5,2.764c.833.358,1.663.726,2.528,1.1Zm-18.321,34.993a10.925,10.925,0,0,0-5.06,1.935c-4.442,3.264-5.965,7.726-4.967,13.024a12.844,12.844,0,0,0,17.6,9.336,12.768,12.768,0,0,0,4.343-2.981A35.983,35.983,0,0,1-327.142-121.361Zm56.657,23.037a28.668,28.668,0,0,0,8.654,2.342,14.9,14.9,0,0,0,7.5-1.16,13.209,13.209,0,0,0,7.6-13.357,11.84,11.84,0,0,0-6.957-9.91,26.653,26.653,0,0,0-2.733-.966,35.855,35.855,0,0,1-4.782,12.9A36.326,36.326,0,0,1-270.485-98.324Zm-3.969.264c-9.1-4.709-17.746-10-26.568-15.149v.639c0,5.809.007,11.618-.013,17.428,0,.478.163.64.594.747a35.114,35.114,0,0,0,11.145,1,34.464,34.464,0,0,0,8.35-1.671A33.876,33.876,0,0,0-274.454-98.06Zm-34.351.218v-.674c0-6.116-.007-12.232.014-18.348a.751.751,0,0,0-.522-.792,40.017,40.017,0,0,0-12.377-3.958c-1.149-.137-2.313-.149-3.553-.223A34.3,34.3,0,0,0-308.8-97.842Zm5.593-61.194c-1.036.444-2.011.888-3.007,1.278a.751.751,0,0,0-.534.839q.018,18.348.011,36.7c0,.538-.165,1.185.074,1.586s.886.552,1.358.805c.687.368,1.378.728,2.1,1.108Zm.02,63.813c0-6.4,0-12.641-.015-18.881a.738.738,0,0,0-.342-.515c-.916-.528-1.853-1.021-2.785-1.522-.116-.062-.244-.1-.409-.17v8.155q0,5.449.007,10.9c0,.192.053.5.173.555C-305.479-96.2-304.375-95.735-303.192-95.223Z" transform="translate(339.453 163.01)" fill="#fff"/>
</svg>
