<?xml version="1.0" encoding="utf-8"?>
<!-- Generator: Adobe Illustrator 26.4.1, SVG Export Plug-In . SVG Version: 6.00 Build 0)  -->
<svg version="1.1" id="Calque_1" xmlns="http://www.w3.org/2000/svg" xmlns:xlink="http://www.w3.org/1999/xlink" x="0px" y="0px"
	 viewBox="0 0 94.8 71.7" style="enable-background:new 0 0 94.8 71.7;" xml:space="preserve">
<style type="text/css">
	.st0{fill:#1D1D1B;}
</style>
<path id="Path_1923" class="st0" d="M25.8,64.2c-1.8,1.9-4.1,3.3-6.6,4.1c-7.8,2.4-16.1-2.1-18.5-9.9c-0.2-0.5-0.3-1.1-0.4-1.6
	c-1-4.6,0.3-9.4,3.5-12.8c2-2.2,4.7-3.7,7.6-4.2c0.2,0,0.4-0.1,0.6-0.1c-0.9-8.7,1.4-17.4,6.4-24.5C22,9.9,27,5.9,32.7,3.4
	c14.8-6.3,28.1-3.6,40.1,6.8V5h2.1v18.2h-2v-0.6c0-3,0-5.9,0-8.9c0-0.3-0.1-0.6-0.3-0.8c-4.6-5-10.7-8.5-17.3-10.1
	c-3.1-0.7-6.3-1-9.5-0.8c-2.3,0.1-4.5,0.5-6.7,1.1c-0.4,0.1-0.5,0.3-0.5,0.7c0,14.4,0,28.8,0,43.2c0,0.5,0.2,0.6,0.6,0.8
	c6.4,3.7,12.7,7.4,19.1,11.1c2.7,1.6,5.5,3,8.3,4.5c0.3,0.2,0.7,0.2,1-0.1c6.8-4.9,11.6-12.1,13.4-20.3c0.2-1.1,0.4-2.2,0.5-3.3
	c0-0.1,0.1-0.2,0.1-0.3c3,0.1,5.9,1.2,8.2,3.1c3,2.4,4.8,6,5.1,9.8c0.6,6.3-2.8,12.4-8.5,15.1c-2.6,1.2-5.4,1.7-8.3,1.5
	c-3.6-0.3-7.1-1.3-10.3-2.8c-0.3-0.2-0.7-0.2-1,0.1c-4,2.5-8.4,4.2-13.1,4.9c-2.7,0.4-5.5,0.6-8.3,0.4c-4.7-0.3-9.4-1.6-13.6-3.7
	c-1.8-0.9-3.5-2.2-5.3-3.3C26.1,64.5,26,64.4,25.8,64.2z M30.6,6.7c-0.2,0.1-0.4,0.2-0.6,0.3c-5.5,3.3-9.9,8.1-12.7,13.8
	c-2.8,5.6-4,11.8-3.4,18c0,0.4,0.2,0.5,0.5,0.5c1.4,0.1,2.8,0.1,4.1,0.2c3.3,0.5,6.5,1.4,9.5,2.8c0.8,0.4,1.7,0.7,2.5,1.1L30.6,6.7z
	 M12.3,41.6c-1.8,0.2-3.6,0.9-5.1,1.9c-4.4,3.3-6,7.7-5,13c1.4,7,8.1,11.5,15.1,10.1c0.9-0.2,1.7-0.4,2.5-0.8c1.6-0.7,3.1-1.7,4.3-3
	C17.9,57.5,13.7,49.9,12.3,41.6L12.3,41.6z M69,64.7c2.7,1.2,5.7,2,8.7,2.3c2.6,0.3,5.1-0.1,7.5-1.2c5.1-2.4,8.2-7.7,7.6-13.4
	c-0.3-4.3-3-8.1-7-9.9c-0.9-0.4-1.8-0.7-2.7-1c-0.7,4.6-2.4,8.9-4.8,12.9C75.8,58.5,72.7,61.9,69,64.7L69,64.7z M65,64.9
	c-9.1-4.7-17.7-10-26.6-15.1v0.6c0,5.8,0,11.6,0,17.4c0,0.5,0.2,0.6,0.6,0.7c3.6,0.9,7.4,1.3,11.1,1c2.8-0.2,5.6-0.8,8.4-1.7
	C60.8,67.2,62.9,66.2,65,64.9z M30.6,65.2v-0.7c0-6.1,0-12.2,0-18.3c0-0.4-0.2-0.7-0.5-0.8c-3.9-2-8.1-3.3-12.4-4
	c-1.1-0.1-2.3-0.1-3.6-0.2C15.9,51.2,21.9,60,30.6,65.2L30.6,65.2z M36.2,4c-1,0.4-2,0.9-3,1.3c-0.4,0.1-0.6,0.5-0.5,0.8
	c0,12.2,0,24.5,0,36.7c0,0.5-0.2,1.2,0.1,1.6s0.9,0.6,1.4,0.8c0.7,0.4,1.4,0.7,2.1,1.1L36.2,4z M36.3,67.8c0-6.4,0-12.6,0-18.9
	c0-0.2-0.2-0.4-0.3-0.5c-0.9-0.5-1.9-1-2.8-1.5c-0.1-0.1-0.2-0.1-0.4-0.2v8.2c0,3.6,0,7.3,0,10.9c0,0.2,0.1,0.5,0.2,0.6
	C34,66.8,35.1,67.3,36.3,67.8L36.3,67.8z"/>
</svg>
