<?xml version="1.0" encoding="utf-8"?>
<!-- Generator: Adobe Illustrator 26.4.1, SVG Export Plug-In . SVG Version: 6.00 Build 0)  -->
<svg version="1.1" id="Calque_1" xmlns="http://www.w3.org/2000/svg" xmlns:xlink="http://www.w3.org/1999/xlink" x="0px" y="0px"
	 viewBox="0 0 32 26" style="enable-background:new 0 0 32 26;" xml:space="preserve">
<g id="Menu_Burger" transform="translate(0.5 -0.5)">
	<path id="Line_20" d="M30.5,26.5h-30c-0.6,0-1-0.4-1-1s0.4-1,1-1h30c0.6,0,1,0.4,1,1S31.1,26.5,30.5,26.5z"/>
	<path id="Line_21" d="M30.5,2.5h-30c-0.6,0-1-0.4-1-1s0.4-1,1-1h30c0.6,0,1,0.4,1,1S31.1,2.5,30.5,2.5z"/>
	<path id="Line_22" d="M29.8,14.5H0.5c-0.6,0-1-0.4-1-1s0.4-1,1-1h29.3c0.6,0,1,0.4,1,1S30.3,14.5,29.8,14.5z"/>
</g>
</svg>
